# 3ds Max Wavefront OBJ Exporter v0.97b - (c)2007 guruware
# File Created: 02.12.2019 12:24:02

mtllib Tape.mtl

#
# object Tape
#

v  -0.0000 0.0000 15.5506
v  -0.0000 3.4702 15.5506
v  1.6955 3.4702 15.8496
v  1.6955 0.0000 15.8496
v  -0.0000 3.4702 18.5251
v  0.6782 3.4702 18.6446
v  -0.0000 0.0000 18.5251
v  0.6782 0.0000 18.6446
v  3.1866 3.4702 16.7104
v  3.1866 0.0000 16.7104
v  1.2746 3.4702 18.9890
v  1.2746 0.0000 18.9890
v  4.2933 3.4702 18.0293
v  4.2933 0.0000 18.0293
v  1.7173 3.4702 19.5165
v  1.7173 0.0000 19.5165
v  4.8821 3.4702 19.6472
v  4.8821 0.0000 19.6472
v  1.9528 3.4702 20.1637
v  1.9528 0.0000 20.1637
v  4.8821 3.4702 21.3689
v  4.8821 0.0000 21.3689
v  1.9528 3.4702 20.8524
v  1.9528 0.0000 20.8524
v  4.2933 3.4702 22.9867
v  4.2933 0.0000 22.9867
v  1.7173 3.4702 21.4995
v  1.7173 0.0000 21.4995
v  3.1866 3.4702 24.3056
v  3.1866 0.0000 24.3056
v  1.2746 3.4702 22.0271
v  1.2746 0.0000 22.0271
v  1.6955 3.4702 25.1665
v  1.6955 0.0000 25.1665
v  0.6782 3.4702 22.3714
v  0.6782 0.0000 22.3714
v  -0.0000 3.4702 25.4654
v  -0.0000 0.0000 25.4654
v  -0.0000 3.4702 22.4910
v  -0.0000 0.0000 22.4910
v  -1.6855 3.4636 25.2547
v  -1.7104 -0.0291 25.2587
v  -0.6782 3.4702 22.3714
v  -0.6782 0.0000 22.3714
v  -1.2746 3.4702 22.0271
v  -3.1866 3.4702 24.3718
v  -1.2746 0.0000 22.0271
v  -3.1591 -0.0031 24.3609
v  -4.2933 3.4702 22.9867
v  -4.2933 0.0000 22.9867
v  -1.7173 3.4702 21.4995
v  -1.7173 0.0000 21.4995
v  -4.8821 3.4702 21.3689
v  -4.8821 0.0000 21.3689
v  -1.9528 3.4702 20.8524
v  -1.9528 0.0000 20.8524
v  -4.8821 3.4702 19.6472
v  -4.8821 0.0000 19.6472
v  -1.9528 3.4702 20.1637
v  -1.9528 0.0000 20.1637
v  -4.2932 3.4702 18.0293
v  -4.2932 0.0000 18.0293
v  -1.7173 3.4702 19.5165
v  -1.7173 0.0000 19.5165
v  -3.1866 3.4702 16.7104
v  -3.1866 0.0000 16.7104
v  -1.2746 3.4702 18.9890
v  -1.2746 0.0000 18.9890
v  -1.6955 3.4702 15.8496
v  -1.6955 0.0000 15.8496
v  -0.6782 3.4702 18.6446
v  -0.6782 0.0000 18.6446
v  -0.5001 0.0000 26.2963
v  0.4924 0.0000 27.4647
v  0.2591 0.0174 27.4853
v  -0.5398 0.0000 26.5237
v  -0.5361 3.4666 26.5251
v  0.2605 3.4825 27.4866
v  0.5008 3.4636 27.4552
v  -0.4920 3.4636 26.2712
v  0.9651 3.4636 28.5711
v  0.7153 3.4636 28.5657
v  0.7153 0.0000 28.5657
v  0.9651 0.0000 28.5711
# 84 vertices

vn -0.0000 -0.6700 -0.7423
vn -0.0000 0.6700 -0.7423
vn 0.2539 0.6700 -0.6976
vn 0.2539 -0.6700 -0.6976
vn -0.0000 0.7484 0.6633
vn -0.2269 0.7484 0.6233
vn -0.0000 -0.7484 0.6633
vn -0.2269 -0.7484 0.6233
vn 0.4772 0.6700 -0.5687
vn 0.4772 -0.6700 -0.5687
vn -0.4264 0.7484 0.5081
vn -0.4264 -0.7484 0.5081
vn 0.6429 0.6700 -0.3712
vn 0.6429 -0.6700 -0.3712
vn -0.5744 0.7484 0.3316
vn -0.5744 -0.7484 0.3316
vn 0.7311 0.6700 -0.1289
vn 0.7311 -0.6700 -0.1289
vn -0.6532 0.7484 0.1152
vn -0.6532 -0.7484 0.1152
vn 0.7311 0.6700 0.1289
vn 0.7311 -0.6700 0.1289
vn -0.6532 0.7484 -0.1152
vn -0.6532 -0.7484 -0.1152
vn 0.6429 0.6700 0.3712
vn 0.6429 -0.6700 0.3712
vn -0.5744 0.7484 -0.3316
vn -0.5744 -0.7484 -0.3316
vn 0.4772 0.6700 0.5687
vn 0.4772 -0.6700 0.5687
vn -0.4264 0.7484 -0.5081
vn -0.4264 -0.7484 -0.5081
vn 0.2539 0.6701 0.6975
vn 0.2539 -0.6701 0.6975
vn -0.2269 0.7484 -0.6233
vn -0.2269 -0.7484 -0.6233
vn 0.0173 0.6756 0.7371
vn 0.0253 -0.6734 0.7388
vn -0.0000 0.7484 -0.6633
vn -0.0000 -0.7484 -0.6633
vn 0.1500 0.9871 0.0565
vn 0.0808 -0.9855 0.1492
vn 0.2265 0.7492 -0.6224
vn 0.2282 -0.7449 -0.6270
vn 0.4264 0.7484 -0.5081
vn -0.5189 0.6815 0.5161
vn 0.4266 -0.7480 -0.5084
vn -0.5171 -0.6876 0.5097
vn -0.6454 0.6725 0.3624
vn -0.6441 -0.6707 0.3678
vn 0.5744 0.7484 -0.3316
vn 0.5744 -0.7484 -0.3316
vn -0.7310 0.6701 0.1289
vn -0.7310 -0.6701 0.1289
vn 0.6532 0.7484 -0.1152
vn 0.6532 -0.7484 -0.1152
vn -0.7311 0.6700 -0.1289
vn -0.7311 -0.6700 -0.1289
vn 0.6532 0.7484 0.1152
vn 0.6532 -0.7484 0.1152
vn -0.6429 0.6701 -0.3711
vn -0.6429 -0.6701 -0.3711
vn 0.5744 0.7484 0.3316
vn 0.5744 -0.7484 0.3316
vn -0.4771 0.6701 -0.5686
vn -0.4771 -0.6701 -0.5686
vn 0.4264 0.7484 0.5081
vn 0.4264 -0.7484 0.5081
vn -0.2539 0.6700 -0.6976
vn -0.2539 -0.6700 -0.6976
vn 0.2269 0.7484 0.6232
vn 0.2269 -0.7484 0.6232
vn 0.5206 -0.6871 -0.5067
vn 0.6036 -0.7031 -0.3759
vn -0.6025 -0.7052 0.3736
vn -0.4748 -0.7327 0.4876
vn -0.4844 0.7315 0.4798
vn -0.5421 0.7758 0.3230
vn 0.6542 0.6447 -0.3954
vn 0.5192 0.6815 -0.5158
vn 0.6851 0.5586 0.4676
vn -0.4484 0.5965 0.6657
vn -0.4481 -0.6085 0.6549
vn 0.6875 -0.5582 0.4645
# 84 vertex normals

vt 0.5818 0.1913 0.0000
vt 0.5595 0.2881 0.0000
vt 0.5115 0.2770 0.0000
vt 0.5338 0.1802 0.0000
vt 0.7077 0.7199 0.0000
vt 0.7500 0.6460 0.0000
vt 0.7685 0.6527 0.0000
vt 0.7541 0.7366 0.0000
vt 0.1324 0.6040 0.0000
vt 0.2374 0.6040 0.0000
vt 0.2374 0.6180 0.0000
vt 0.1324 0.6180 0.0000
vt 0.2978 0.4521 0.0000
vt 0.3328 0.5293 0.0000
vt 0.2848 0.5413 0.0000
vt 0.2785 0.4569 0.0000
vt 0.4635 0.2660 0.0000
vt 0.4858 0.1692 0.0000
vt 0.7882 0.6526 0.0000
vt 0.8034 0.7364 0.0000
vt 0.2374 0.6320 0.0000
vt 0.1324 0.6320 0.0000
vt 0.2355 0.5363 0.0000
vt 0.2588 0.4549 0.0000
vt 0.4155 0.2549 0.0000
vt 0.4377 0.1581 0.0000
vt 0.8067 0.6458 0.0000
vt 0.8496 0.7193 0.0000
vt 0.2374 0.6460 0.0000
vt 0.1324 0.6460 0.0000
vt 0.1909 0.5150 0.0000
vt 0.2410 0.4464 0.0000
vt 0.3674 0.2439 0.0000
vt 0.3897 0.1471 0.0000
vt 0.8218 0.6330 0.0000
vt 0.8872 0.6874 0.0000
vt 0.2374 0.6600 0.0000
vt 0.1324 0.6600 0.0000
vt 0.1563 0.4799 0.0000
vt 0.2271 0.4323 0.0000
vt 0.3194 0.2328 0.0000
vt 0.3417 0.1360 0.0000
vt 0.8315 0.6159 0.0000
vt 0.9117 0.6447 0.0000
vt 0.2374 0.6740 0.0000
vt 0.1324 0.6740 0.0000
vt 0.1360 0.4352 0.0000
vt 0.2190 0.4144 0.0000
vt 0.2714 0.2218 0.0000
vt 0.2937 0.1250 0.0000
vt 0.8349 0.5965 0.0000
vt 0.9200 0.5961 0.0000
vt 0.2374 0.6880 0.0000
vt 0.1324 0.6880 0.0000
vt 0.1324 0.3863 0.0000
vt 0.2176 0.3949 0.0000
vt 0.2234 0.2107 0.0000
vt 0.2456 0.1139 0.0000
vt 0.8314 0.5771 0.0000
vt 0.9112 0.5476 0.0000
vt 0.2382 0.7004 0.0000
vt 0.1332 0.7004 0.0000
vt 0.1459 0.3392 0.0000
vt 0.2230 0.3760 0.0000
vt 0.1754 0.1997 0.0000
vt 0.1976 0.1029 0.0000
vt 0.8214 0.5601 0.0000
vt 0.8864 0.5050 0.0000
vt 0.2382 0.7144 0.0000
vt 0.1332 0.7144 0.0000
vt 0.1749 0.2994 0.0000
vt 0.2346 0.3601 0.0000
vt 0.1273 0.1887 0.0000
vt 0.1496 0.0919 0.0000
vt 0.8063 0.5475 0.0000
vt 0.8485 0.4735 0.0000
vt 0.2374 0.7300 0.0000
vt 0.1324 0.7300 0.0000
vt 0.2159 0.2719 0.0000
vt 0.2510 0.3491 0.0000
vt 0.0800 0.1776 0.0000
vt 0.1017 0.0800 0.0000
vt 0.7877 0.5408 0.0000
vt 0.8036 0.4548 0.0000
vt 0.2374 0.7440 0.0000
vt 0.1324 0.7440 0.0000
vt 0.2633 0.2573 0.0000
vt 0.2702 0.3443 0.0000
vt 0.7680 0.5409 0.0000
vt 0.7538 0.4555 0.0000
vt 0.2374 0.7580 0.0000
vt 0.1324 0.7580 0.0000
vt 0.3119 0.2638 0.0000
vt 0.2899 0.3463 0.0000
vt 0.9196 0.2692 0.0000
vt 0.8970 0.3660 0.0000
vt 0.8476 0.3545 0.0000
vt 0.8699 0.2578 0.0000
vt 0.7495 0.5477 0.0000
vt 0.7066 0.4742 0.0000
vt 0.2374 0.7720 0.0000
vt 0.1324 0.7720 0.0000
vt 0.3579 0.2862 0.0000
vt 0.3078 0.3549 0.0000
vt 0.7996 0.3435 0.0000
vt 0.8219 0.2467 0.0000
vt 0.7345 0.5605 0.0000
vt 0.6690 0.5060 0.0000
vt 0.2374 0.7860 0.0000
vt 0.1324 0.7860 0.0000
vt 0.3924 0.3214 0.0000
vt 0.3216 0.3689 0.0000
vt 0.7516 0.3324 0.0000
vt 0.7739 0.2356 0.0000
vt 0.7247 0.5776 0.0000
vt 0.6446 0.5488 0.0000
vt 0.2374 0.8000 0.0000
vt 0.1324 0.8000 0.0000
vt 0.4127 0.3660 0.0000
vt 0.3297 0.3868 0.0000
vt 0.7035 0.3213 0.0000
vt 0.7259 0.2245 0.0000
vt 0.7214 0.5970 0.0000
vt 0.6362 0.5974 0.0000
vt 0.2374 0.8140 0.0000
vt 0.1324 0.8140 0.0000
vt 0.4163 0.4149 0.0000
vt 0.3312 0.4063 0.0000
vt 0.6555 0.3102 0.0000
vt 0.6779 0.2134 0.0000
vt 0.7249 0.6164 0.0000
vt 0.6450 0.6459 0.0000
vt 0.2374 0.8280 0.0000
vt 0.1324 0.8280 0.0000
vt 0.4028 0.4620 0.0000
vt 0.3258 0.4252 0.0000
vt 0.6075 0.2991 0.0000
vt 0.6298 0.2024 0.0000
vt 0.7348 0.6334 0.0000
vt 0.6698 0.6884 0.0000
vt 0.2374 0.8420 0.0000
vt 0.1324 0.8420 0.0000
vt 0.3738 0.5018 0.0000
vt 0.3142 0.4411 0.0000
vt 0.2374 0.8560 0.0000
vt 0.1324 0.8560 0.0000
vt 0.4476 0.7557 0.0000
vt 0.4909 0.7571 0.0000
vt 0.4874 0.7629 0.0000
vt 0.4512 0.7612 0.0000
vt 0.4482 0.8607 0.0000
vt 0.4843 0.8623 0.0000
vt 0.4874 0.8686 0.0000
vt 0.4438 0.8666 0.0000
vt 0.5227 0.8647 0.0000
vt 0.5176 0.8618 0.0000
vt 0.5206 0.7643 0.0000
vt 0.5259 0.7617 0.0000
vt 0.4390 0.7097 0.0000
vt 0.3948 0.7120 0.0000
vt 0.3896 0.6130 0.0000
vt 0.4334 0.6107 0.0000
vt 0.3536 0.7581 0.0000
vt 0.4022 0.7531 0.0000
vt 0.3991 0.8666 0.0000
vt 0.3501 0.8577 0.0000
vt 0.3603 0.7138 0.0000
vt 0.3552 0.6148 0.0000
vt 0.4789 0.6075 0.0000
vt 0.4838 0.7073 0.0000
# 170 texture coords

o Tape
g Tape
usemtl wire_113135006
s 2
f 1/1/1 2/2/2 3/3/3 4/4/4 
s 4
f 2/5/2 5/6/5 6/7/6 3/8/3 
s 2
f 5/9/5 7/10/7 8/11/8 6/12/6 
s 4
f 7/13/7 1/14/1 4/15/4 8/16/8 
s 2
f 4/4/4 3/3/3 9/17/9 10/18/10 
s 4
f 3/8/3 6/7/6 11/19/11 9/20/9 
s 2
f 6/12/6 8/11/8 12/21/12 11/22/11 
s 4
f 8/16/8 4/15/4 10/23/10 12/24/12 
s 2
f 10/18/10 9/17/9 13/25/13 14/26/14 
s 4
f 9/20/9 11/19/11 15/27/15 13/28/13 
s 2
f 11/22/11 12/21/12 16/29/16 15/30/15 
s 4
f 12/24/12 10/23/10 14/31/14 16/32/16 
s 2
f 14/26/14 13/25/13 17/33/17 18/34/18 
s 4
f 13/28/13 15/27/15 19/35/19 17/36/17 
s 2
f 15/30/15 16/29/16 20/37/20 19/38/19 
s 4
f 16/32/16 14/31/14 18/39/18 20/40/20 
s 2
f 18/34/18 17/33/17 21/41/21 22/42/22 
s 4
f 17/36/17 19/35/19 23/43/23 21/44/21 
s 2
f 19/38/19 20/37/20 24/45/24 23/46/23 
s 4
f 20/40/20 18/39/18 22/47/22 24/48/24 
s 2
f 22/42/22 21/41/21 25/49/25 26/50/26 
s 4
f 21/44/21 23/43/23 27/51/27 25/52/25 
s 2
f 23/46/23 24/45/24 28/53/28 27/54/27 
s 4
f 24/48/24 22/47/22 26/55/26 28/56/28 
s 2
f 26/50/26 25/49/25 29/57/29 30/58/30 
s 4
f 25/52/25 27/51/27 31/59/31 29/60/29 
s 2
f 27/54/27 28/53/28 32/61/32 31/62/31 
s 4
f 28/56/28 26/55/26 30/63/30 32/64/32 
s 2
f 30/58/30 29/57/29 33/65/33 34/66/34 
s 4
f 29/60/29 31/59/31 35/67/35 33/68/33 
s 2
f 31/62/31 32/61/32 36/69/36 35/70/35 
s 4
f 32/64/32 30/63/30 34/71/34 36/72/36 
s 2
f 34/66/34 33/65/33 37/73/37 38/74/38 
s 4
f 33/68/33 35/67/35 39/75/39 37/76/37 
s 2
f 35/70/35 36/69/36 40/77/40 39/78/39 
s 4
f 36/72/36 34/71/34 38/79/38 40/80/40 
s 2
f 38/74/38 37/73/37 41/81/41 42/82/42 
s 4
f 37/76/37 39/75/39 43/83/43 41/84/41 
s 2
f 39/78/39 40/77/40 44/85/44 43/86/43 
s 4
f 40/80/40 38/79/38 42/87/42 44/88/44 
f 41/84/41 43/83/43 45/89/45 46/90/46 
s 2
f 43/86/43 44/85/44 47/91/47 45/92/45 
s 4
f 44/88/44 42/87/42 48/93/48 47/94/47 
s 2
f 48/95/48 46/96/46 49/97/49 50/98/50 
s 4
f 46/90/46 45/89/45 51/99/51 49/100/49 
s 2
f 45/92/45 47/91/47 52/101/52 51/102/51 
s 4
f 47/94/47 48/93/48 50/103/50 52/104/52 
s 2
f 50/98/50 49/97/49 53/105/53 54/106/54 
s 4
f 49/100/49 51/99/51 55/107/55 53/108/53 
s 2
f 51/102/51 52/101/52 56/109/56 55/110/55 
s 4
f 52/104/52 50/103/50 54/111/54 56/112/56 
s 2
f 54/106/54 53/105/53 57/113/57 58/114/58 
s 4
f 53/108/53 55/107/55 59/115/59 57/116/57 
s 2
f 55/110/55 56/109/56 60/117/60 59/118/59 
s 4
f 56/112/56 54/111/54 58/119/58 60/120/60 
s 2
f 58/114/58 57/113/57 61/121/61 62/122/62 
s 4
f 57/116/57 59/115/59 63/123/63 61/124/61 
s 2
f 59/118/59 60/117/60 64/125/64 63/126/63 
s 4
f 60/120/60 58/119/58 62/127/62 64/128/64 
s 2
f 62/122/62 61/121/61 65/129/65 66/130/66 
s 4
f 61/124/61 63/123/63 67/131/67 65/132/65 
s 2
f 63/126/63 64/125/64 68/133/68 67/134/67 
s 4
f 64/128/64 62/127/62 66/135/66 68/136/68 
s 2
f 66/130/66 65/129/65 69/137/69 70/138/70 
s 4
f 65/132/65 67/131/67 71/139/71 69/140/69 
s 2
f 67/134/67 68/133/68 72/141/72 71/142/71 
s 4
f 68/136/68 66/135/66 70/143/70 72/144/72 
s 2
f 70/138/70 69/137/69 2/2/2 1/1/1 
s 4
f 69/140/69 71/139/71 5/6/5 2/5/2 
s 2
f 71/142/71 72/141/72 7/145/7 5/146/5 
s 4
f 72/144/72 70/143/70 1/14/1 7/13/7 
s 2
f 73/147/73 74/148/74 75/149/75 76/150/76 
s 4
f 77/151/77 78/152/78 79/153/79 80/154/80 
s 16
f 81/155/81 82/156/82 83/157/83 84/158/84 
s 32
f 80/159/80 79/160/79 74/161/74 73/162/73 
s 1
f 76/150/76 75/149/75 78/152/78 77/151/77 
s 2
f 74/148/74 84/158/84 83/157/83 75/149/75 
f 76/150/76 48/163/48 42/164/42 73/147/73 
s 4
f 78/152/78 82/156/82 81/155/81 79/153/79 
f 80/154/80 41/165/41 46/166/46 77/151/77 
s 32
f 79/160/79 81/167/81 84/168/84 74/161/74 
f 73/162/73 42/169/42 41/170/41 80/159/80 
s 1
f 75/149/75 83/157/83 82/156/82 78/152/78 
f 77/151/77 46/166/46 48/163/48 76/150/76 
# 84 polygons

