# 3ds Max Wavefront OBJ Exporter v0.97b - (c)2007 guruware
# File Created: 03.10.2019 18:23:47

mtllib dome.mtl

#
# object dome
#

v  9117.9385 -2587.4790 -233.8232
v  7281.7017 -2587.4790 2946.6260
v  4468.4263 -2587.4790 5307.2417
v  1017.4342 -2587.4790 6563.2993
v  -2655.0342 -2587.4790 6563.2964
v  -6106.0249 -2587.4790 5307.2368
v  -8919.2969 -2587.4790 2946.6191
v  -10755.5313 -2587.4790 -233.8328
v  -11393.2480 -2587.4790 -3850.5081
v  -10755.5303 -2587.4790 -7467.1826
v  -8919.2959 -2587.4790 -10647.6348
v  -6106.0225 -2587.4790 -13008.2520
v  -2655.0308 -2587.4790 -14264.3105
v  1017.4387 -2587.4790 -14264.3105
v  4468.4316 -2587.4790 -13008.2520
v  7281.7061 -2587.4790 -10647.6348
v  9117.9414 -2587.4790 -7467.1826
v  9755.6592 -2587.4790 -3850.5063
v  9639.2852 -1837.1331 -7656.9355
v  10310.4600 -1837.1331 -3850.5063
v  7706.7090 -1837.1331 -11004.2539
v  4745.8325 -1837.1331 -13488.7246
v  1113.7789 -1837.1331 -14810.6836
v  -2751.3713 -1837.1331 -14810.6836
v  -6383.4229 -1837.1331 -13488.7246
v  -9344.2988 -1837.1331 -11004.2539
v  -11276.8730 -1837.1331 -7656.9365
v  -11948.0498 -1837.1331 -3850.5081
v  9639.2813 -1837.1331 -44.0696
v  7706.7041 -1837.1331 3303.2461
v  9825.4395 -1050.5435 -7724.6904
v  10508.5625 -1050.5435 -3850.5063
v  7858.4639 -1050.5435 -11131.5918
v  4844.8828 -1050.5435 -13660.2852
v  1148.1790 -1050.5435 -15005.7754
v  -2785.7715 -1050.5435 -15005.7754
v  -6482.4741 -1050.5435 -13660.2852
v  -9496.0537 -1050.5435 -11131.5918
v  -11463.0283 -1050.5435 -7724.6914
v  -12146.1504 -1050.5435 -3850.5081
v  9825.4365 -1050.5435 23.6853
v  7858.4590 -1050.5435 3430.5830
v  10218.3613 -10.2661 -7867.7031
v  10926.7012 -10.2661 -3850.5063
v  8178.7773 -10.2661 -11400.3662
v  5053.9531 -10.2661 -14022.4043
v  1220.7881 -10.2661 -15417.5625
v  -2858.3804 -10.2661 -15417.5625
v  -6691.5439 -10.2661 -14022.4043
v  -9816.3672 -10.2661 -11400.3662
v  -11855.9512 -10.2661 -7867.7031
v  -12564.2910 -10.2661 -3850.5081
v  10218.3584 -10.2661 166.6978
v  8178.7725 -10.2661 3699.3594
v  10532.6357 1287.3447 -7982.0889
v  11261.1445 1287.3447 -3850.5063
v  8434.9756 1287.3447 -11615.3418
v  5221.1743 1287.3447 -14312.0410
v  1278.8635 1287.3447 -15746.9258
v  -2916.4558 1287.3447 -15746.9238
v  -6858.7661 1287.3447 -14312.0410
v  -10072.5645 1287.3447 -11615.3418
v  -12170.2256 1287.3447 -7982.0898
v  -12898.7344 1287.3447 -3850.5081
v  10532.6318 1287.3447 281.0845
v  8434.9707 1287.3447 3914.3350
v  10218.3623 3559.8271 -7867.7031
v  10926.7031 3559.8271 -3850.5063
v  8178.7773 3559.8271 -11400.3672
v  5053.9531 3559.8271 -14022.4063
v  1220.7883 3559.8271 -15417.5645
v  -2858.3804 3559.8271 -15417.5625
v  -6691.5449 3559.8271 -14022.4043
v  -9816.3672 3559.8271 -11400.3672
v  -11855.9512 3559.8271 -7867.7036
v  -12564.2910 3559.8271 -3850.5081
v  10218.3594 3559.8271 166.6978
v  8178.7725 3559.8271 3699.3594
v  9731.5391 5687.3438 -7690.5142
v  10408.6367 5687.3438 -3850.5063
v  7781.9170 5687.3438 -11067.3613
v  4794.9209 5687.3438 -13573.7480
v  1130.8269 5687.3438 -14907.3672
v  -2768.4194 5687.3438 -14907.3672
v  -6432.5112 5687.3438 -13573.7480
v  -9419.5068 5687.3438 -11067.3613
v  -11369.1289 5687.3438 -7690.5146
v  -12046.2266 5687.3438 -3850.5081
v  9731.5371 5687.3438 -10.4912
v  7781.9121 5687.3438 3366.3530
v  8651.4434 7703.4238 -7297.3916
v  9259.2227 7703.4238 -3850.5063
v  6901.4141 7703.4238 -10328.5322
v  4220.2134 7703.4238 -12578.3262
v  931.2333 7703.4238 -13775.4180
v  -2568.8262 7703.4238 -13775.4160
v  -5857.8052 7703.4238 -12578.3262
v  -8539.0039 7703.4238 -10328.5322
v  -10289.0352 7703.4238 -7297.3921
v  -10896.8145 7703.4238 -3850.5078
v  8651.4395 7703.4238 -403.6145
v  6901.4087 7703.4238 2627.5234
v  6470.9063 9730.6074 -6503.7407
v  6938.7437 9730.6074 -3850.5063
v  5123.8242 9730.6074 -8836.9570
v  3059.9739 9730.6074 -10568.7324
v  528.2864 9730.6074 -11490.1914
v  -2165.8789 9730.6074 -11490.1914
v  -4697.5659 9730.6074 -10568.7324
v  -6761.4150 9730.6074 -8836.9570
v  -8108.4976 9730.6074 -6503.7412
v  -8576.3340 9730.6074 -3850.5076
v  6470.9043 9730.6074 -1197.2668
v  5123.8208 9730.6074 1135.9473
v  3884.4990 11637.3574 -5562.3657
v  4186.3452 11637.3574 -3850.5063
v  3015.3650 11637.3574 -7067.7500
v  1683.7747 11637.3574 -8185.0869
v  50.3372 11637.3574 -8779.6094
v  -1687.9307 11637.3574 -8779.6084
v  -3321.3674 11637.3574 -8185.0869
v  -4652.9570 11637.3574 -7067.7500
v  -5522.0908 11637.3574 -5562.3662
v  -5823.9385 11637.3574 -3850.5071
v  3884.4976 11637.3574 -2138.6436
v  3015.3633 11637.3574 -633.2610
# 126 vertices

vn 0.5082 -0.8412 0.1850
vn 0.3217 -0.9284 0.1857
vn 0.0000 -1.0000 -0.0000
vn -0.3658 -0.9284 -0.0645
vn -0.5082 -0.8412 -0.1850
vn -0.4143 -0.8412 -0.3476
vn -0.2704 -0.8412 -0.4683
vn -0.0939 -0.8412 -0.5326
vn 0.0939 -0.8412 -0.5326
vn 0.2704 -0.8412 -0.4683
vn 0.4143 -0.8412 -0.3476
vn 0.5082 -0.8412 -0.1850
vn 0.5408 -0.8412 0.0000
vn 0.8826 -0.3433 -0.3212
vn 0.9392 -0.3433 0.0000
vn 0.7195 -0.3433 -0.6037
vn 0.4696 -0.3433 -0.8134
vn 0.1631 -0.3433 -0.9250
vn -0.1631 -0.3433 -0.9250
vn -0.4696 -0.3433 -0.8134
vn -0.7195 -0.3433 -0.6037
vn -0.8826 -0.3433 -0.3212
vn -0.9266 -0.3387 -0.1634
vn 0.8826 -0.3433 0.3212
vn 0.8148 -0.3387 0.4704
vn 0.9107 -0.2463 -0.3315
vn 0.9692 -0.2463 0.0000
vn 0.7424 -0.2463 -0.6230
vn 0.4846 -0.2463 -0.8393
vn 0.1683 -0.2463 -0.9545
vn -0.1683 -0.2463 -0.9545
vn -0.4846 -0.2463 -0.8393
vn -0.7424 -0.2463 -0.6230
vn -0.9107 -0.2463 -0.3315
vn -0.9553 -0.2428 -0.1685
vn 0.9107 -0.2463 0.3315
vn 0.8401 -0.2428 0.4850
vn 0.9109 -0.2456 -0.3315
vn 0.9694 -0.2456 0.0000
vn 0.7426 -0.2456 -0.6231
vn 0.4847 -0.2456 -0.8395
vn 0.1683 -0.2456 -0.9546
vn -0.1683 -0.2456 -0.9546
vn -0.4847 -0.2456 -0.8395
vn -0.7426 -0.2456 -0.6231
vn -0.9109 -0.2456 -0.3315
vn -0.9555 -0.2421 -0.1685
vn 0.9109 -0.2456 0.3315
vn 0.8403 -0.2421 0.4851
vn 0.9389 -0.0411 -0.3417
vn 0.9992 -0.0411 0.0000
vn 0.7654 -0.0411 -0.6422
vn 0.4996 -0.0411 -0.8653
vn 0.1735 -0.0411 -0.9840
vn -0.1735 -0.0411 -0.9840
vn -0.4996 -0.0411 -0.8653
vn -0.7654 -0.0411 -0.6422
vn -0.9389 -0.0411 -0.3417
vn -0.9840 -0.0405 -0.1735
vn 0.9389 -0.0411 0.3417
vn 0.8653 -0.0405 0.4996
vn 0.9292 0.1489 -0.3382
vn 0.9889 0.1489 0.0000
vn 0.7575 0.1489 -0.6356
vn 0.4944 0.1489 -0.8564
vn 0.1717 0.1489 -0.9738
vn -0.1717 0.1489 -0.9738
vn -0.4944 0.1489 -0.8564
vn -0.7575 0.1489 -0.6356
vn -0.9292 0.1489 -0.3382
vn -0.9742 0.1467 -0.1718
vn 0.9292 0.1489 0.3382
vn 0.8567 0.1467 0.4946
vn 0.8984 0.2932 -0.3270
vn 0.9560 0.2932 0.0000
vn 0.7324 0.2932 -0.6145
vn 0.4780 0.2932 -0.8280
vn 0.1660 0.2932 -0.9415
vn -0.1660 0.2932 -0.9415
vn -0.4780 0.2932 -0.8280
vn -0.7324 0.2932 -0.6145
vn -0.8984 0.2932 -0.3270
vn -0.9427 0.2892 -0.1662
vn 0.8984 0.2932 0.3270
vn 0.8290 0.2892 0.4786
vn 0.7952 0.5328 -0.2894
vn 0.8463 0.5328 0.0000
vn 0.6483 0.5328 -0.5440
vn 0.4231 0.5328 -0.7329
vn 0.1470 0.5328 -0.8334
vn -0.1470 0.5328 -0.8334
vn -0.4231 0.5328 -0.7329
vn -0.6483 0.5328 -0.5440
vn -0.7952 0.5328 -0.2894
vn -0.8370 0.5269 -0.1476
vn 0.7952 0.5328 0.2894
vn 0.7360 0.5269 0.4250
vn 0.6687 0.7026 -0.2434
vn 0.7116 0.7026 0.0000
vn 0.5451 0.7026 -0.4574
vn 0.3558 0.7026 -0.6162
vn 0.1236 0.7026 -0.7008
vn -0.1236 0.7026 -0.7008
vn -0.3558 0.7026 -0.6162
vn -0.5451 0.7026 -0.4574
vn -0.6687 0.7026 -0.2434
vn -0.7060 0.6971 -0.1245
vn 0.6687 0.7026 0.2434
vn 0.6209 0.6971 0.3585
vn 0.3667 0.9207 -0.1335
vn 0.3902 0.9207 0.0000
vn 0.2989 0.9207 -0.2508
vn 0.1951 0.9207 -0.3380
vn 0.0678 0.9207 -0.3843
vn -0.0678 0.9207 -0.3843
vn -0.1951 0.9207 -0.3380
vn -0.2989 0.9207 -0.2508
vn -0.3667 0.9207 -0.1335
vn -0.3501 0.9347 -0.0617
vn 0.3667 0.9207 0.1335
vn 0.3079 0.9347 0.1778
# 121 vertex normals

vt 0.3400 0.0000 0.0000
vt 0.1953 0.0000 -0.3473
vt 0.0874 0.0000 -0.6527
vt 0.0292 0.0000 -0.8794
vt 0.0278 0.0000 -1.0000
vt 0.0833 0.0000 -1.0000
vt 0.1891 0.0000 -0.8794
vt 0.3325 0.0000 -0.6527
vt 0.4960 0.0000 -0.3473
vt 0.6600 0.0000 0.0000
vt 0.8047 0.0000 0.3473
vt 0.9126 0.0000 0.6527
vt 0.9708 0.0000 0.8794
vt 0.9722 0.0000 1.0000
vt 0.9167 0.0000 1.0000
vt 0.8611 0.0000 1.0000
vt 0.8056 0.0000 1.0000
vt 0.7500 0.0000 1.0000
vt 0.8056 0.1111 1.0000
vt 0.7500 0.1111 1.0000
vt 0.8611 0.1111 1.0000
vt 0.9167 0.1111 1.0000
vt 0.9722 0.1111 1.0000
vt -0.0278 0.0000 1.0000
vt 0.0278 0.0000 1.0000
vt 0.0278 0.1111 1.0000
vt -0.0278 0.1111 1.0000
vt 0.0833 0.0000 1.0000
vt 0.0833 0.1111 1.0000
vt 0.1389 0.0000 1.0000
vt 0.1389 0.1111 1.0000
vt 0.1944 0.0000 1.0000
vt 0.1944 0.1111 1.0000
vt 0.2500 0.0000 1.0000
vt 0.2500 0.1111 1.0000
vt 0.6389 0.0000 1.0000
vt 0.6944 0.0000 1.0000
vt 0.6944 0.1111 1.0000
vt 0.6389 0.1111 1.0000
vt 0.8056 0.2222 1.0000
vt 0.7500 0.2222 1.0000
vt 0.8611 0.2222 1.0000
vt 0.9167 0.2222 1.0000
vt 0.9722 0.2222 1.0000
vt 0.0278 0.2222 1.0000
vt -0.0278 0.2222 1.0000
vt 0.0833 0.2222 1.0000
vt 0.1389 0.2222 1.0000
vt 0.1944 0.2222 1.0000
vt 0.2500 0.2222 1.0000
vt 0.6944 0.2222 1.0000
vt 0.6389 0.2222 1.0000
vt 0.8056 0.3333 1.0000
vt 0.7500 0.3333 1.0000
vt 0.8611 0.3333 1.0000
vt 0.9167 0.3333 1.0000
vt 0.9722 0.3333 1.0000
vt 0.0278 0.3333 1.0000
vt -0.0278 0.3333 1.0000
vt 0.0833 0.3333 1.0000
vt 0.1389 0.3333 1.0000
vt 0.1944 0.3333 1.0000
vt 0.2500 0.3333 1.0000
vt 0.6944 0.3333 1.0000
vt 0.6389 0.3333 1.0000
vt 0.8056 0.4444 1.0000
vt 0.7500 0.4444 1.0000
vt 0.8611 0.4444 1.0000
vt 0.9167 0.4444 1.0000
vt 0.9722 0.4444 1.0000
vt 0.0278 0.4444 1.0000
vt -0.0278 0.4444 1.0000
vt 0.0833 0.4444 1.0000
vt 0.1389 0.4444 1.0000
vt 0.1944 0.4444 1.0000
vt 0.2500 0.4444 1.0000
vt 0.6944 0.4444 1.0000
vt 0.6389 0.4444 1.0000
vt 0.8056 0.5556 1.0000
vt 0.7500 0.5556 1.0000
vt 0.8611 0.5556 1.0000
vt 0.9167 0.5556 1.0000
vt 0.9722 0.5556 1.0000
vt 0.0278 0.5556 1.0000
vt -0.0278 0.5556 1.0000
vt 0.0833 0.5556 1.0000
vt 0.1389 0.5556 1.0000
vt 0.1944 0.5556 1.0000
vt 0.2500 0.5556 1.0000
vt 0.6944 0.5556 1.0000
vt 0.6389 0.5556 1.0000
vt 0.8056 0.6667 1.0000
vt 0.7500 0.6667 1.0000
vt 0.8611 0.6667 1.0000
vt 0.9167 0.6667 1.0000
vt 0.9722 0.6667 1.0000
vt 0.0278 0.6667 1.0000
vt -0.0278 0.6667 1.0000
vt 0.0833 0.6667 1.0000
vt 0.1389 0.6667 1.0000
vt 0.1944 0.6667 1.0000
vt 0.2500 0.6667 1.0000
vt 0.6944 0.6667 1.0000
vt 0.6389 0.6667 1.0000
vt 0.8056 0.7778 1.0000
vt 0.7500 0.7778 1.0000
vt 0.8611 0.7778 1.0000
vt 0.9167 0.7778 1.0000
vt 0.9722 0.7778 1.0000
vt 0.0278 0.7778 1.0000
vt -0.0278 0.7778 1.0000
vt 0.0833 0.7778 1.0000
vt 0.1389 0.7778 1.0000
vt 0.1944 0.7778 1.0000
vt 0.2500 0.7778 1.0000
vt 0.6944 0.7778 1.0000
vt 0.6389 0.7778 1.0000
vt 0.8056 0.8889 1.0000
vt 0.7500 0.8889 1.0000
vt 0.8611 0.8889 1.0000
vt 0.9167 0.8889 1.0000
vt 0.9722 0.8889 1.0000
vt 0.0278 0.8889 1.0000
vt -0.0278 0.8889 1.0000
vt 0.0833 0.8889 1.0000
vt 0.1389 0.8889 1.0000
vt 0.1944 0.8889 1.0000
vt 0.2500 0.8889 1.0000
vt 0.6944 0.8889 1.0000
vt 0.6389 0.8889 1.0000
vt 0.8056 1.0000 1.0000
vt 0.7500 1.0000 1.0000
vt 0.8611 1.0000 1.0000
vt 0.9167 1.0000 1.0000
vt 0.9722 1.0000 1.0000
vt 0.0278 1.0000 1.0000
vt -0.0278 1.0000 1.0000
vt 0.0833 1.0000 1.0000
vt 0.1389 1.0000 1.0000
vt 0.1944 1.0000 1.0000
vt 0.2500 1.0000 1.0000
vt 0.6944 1.0000 1.0000
vt 0.6389 1.0000 1.0000
vt 0.9708 1.0000 0.8794
vt 0.9126 1.0000 0.6527
vt 0.8047 1.0000 0.3473
vt 0.6600 1.0000 -0.0000
vt 0.4960 1.0000 -0.3473
vt 0.1953 1.0000 -0.3473
# 149 texture coords

o dome
g dome
usemtl wire_141007058
s 1
f 1/1/1 2/2/2 3/3/3 4/4/3 5/5/3 6/6/3 7/7/3 8/8/3 9/9/4 10/10/5 11/11/6 12/12/7 13/13/8 14/14/9 15/15/10 16/16/11 17/17/12 18/18/13 
s 8
f 18/18/13 17/17/12 19/19/14 20/20/15 
f 17/17/12 16/16/11 21/21/16 19/19/14 
f 16/16/11 15/15/10 22/22/17 21/21/16 
f 15/15/10 14/14/9 23/23/18 22/22/17 
f 14/24/9 13/25/8 24/26/19 23/27/18 
f 13/25/8 12/28/7 25/29/20 24/26/19 
f 12/28/7 11/30/6 26/31/21 25/29/20 
f 11/30/6 10/32/5 27/33/22 26/31/21 
f 10/32/5 9/34/4 28/35/23 27/33/22 
f 2/36/2 1/37/1 29/38/24 30/39/25 
f 1/37/1 18/18/13 20/20/15 29/38/24 
f 20/20/15 19/19/14 31/40/26 32/41/27 
f 19/19/14 21/21/16 33/42/28 31/40/26 
f 21/21/16 22/22/17 34/43/29 33/42/28 
f 22/22/17 23/23/18 35/44/30 34/43/29 
f 23/27/18 24/26/19 36/45/31 35/46/30 
f 24/26/19 25/29/20 37/47/32 36/45/31 
f 25/29/20 26/31/21 38/48/33 37/47/32 
f 26/31/21 27/33/22 39/49/34 38/48/33 
f 27/33/22 28/35/23 40/50/35 39/49/34 
f 30/39/25 29/38/24 41/51/36 42/52/37 
f 29/38/24 20/20/15 32/41/27 41/51/36 
f 32/41/27 31/40/26 43/53/38 44/54/39 
f 31/40/26 33/42/28 45/55/40 43/53/38 
f 33/42/28 34/43/29 46/56/41 45/55/40 
f 34/43/29 35/44/30 47/57/42 46/56/41 
f 35/46/30 36/45/31 48/58/43 47/59/42 
f 36/45/31 37/47/32 49/60/44 48/58/43 
f 37/47/32 38/48/33 50/61/45 49/60/44 
f 38/48/33 39/49/34 51/62/46 50/61/45 
f 39/49/34 40/50/35 52/63/47 51/62/46 
f 42/52/37 41/51/36 53/64/48 54/65/49 
f 41/51/36 32/41/27 44/54/39 53/64/48 
f 44/54/39 43/53/38 55/66/50 56/67/51 
f 43/53/38 45/55/40 57/68/52 55/66/50 
f 45/55/40 46/56/41 58/69/53 57/68/52 
f 46/56/41 47/57/42 59/70/54 58/69/53 
f 47/59/42 48/58/43 60/71/55 59/72/54 
f 48/58/43 49/60/44 61/73/56 60/71/55 
f 49/60/44 50/61/45 62/74/57 61/73/56 
f 50/61/45 51/62/46 63/75/58 62/74/57 
f 51/62/46 52/63/47 64/76/59 63/75/58 
f 54/65/49 53/64/48 65/77/60 66/78/61 
f 53/64/48 44/54/39 56/67/51 65/77/60 
f 56/67/51 55/66/50 67/79/62 68/80/63 
f 55/66/50 57/68/52 69/81/64 67/79/62 
f 57/68/52 58/69/53 70/82/65 69/81/64 
f 58/69/53 59/70/54 71/83/66 70/82/65 
f 59/72/54 60/71/55 72/84/67 71/85/66 
f 60/71/55 61/73/56 73/86/68 72/84/67 
f 61/73/56 62/74/57 74/87/69 73/86/68 
f 62/74/57 63/75/58 75/88/70 74/87/69 
f 63/75/58 64/76/59 76/89/71 75/88/70 
f 66/78/61 65/77/60 77/90/72 78/91/73 
f 65/77/60 56/67/51 68/80/63 77/90/72 
f 68/80/63 67/79/62 79/92/74 80/93/75 
f 67/79/62 69/81/64 81/94/76 79/92/74 
f 69/81/64 70/82/65 82/95/77 81/94/76 
f 70/82/65 71/83/66 83/96/78 82/95/77 
f 71/85/66 72/84/67 84/97/79 83/98/78 
f 72/84/67 73/86/68 85/99/80 84/97/79 
f 73/86/68 74/87/69 86/100/81 85/99/80 
f 74/87/69 75/88/70 87/101/82 86/100/81 
f 75/88/70 76/89/71 88/102/83 87/101/82 
f 78/91/73 77/90/72 89/103/84 90/104/85 
f 77/90/72 68/80/63 80/93/75 89/103/84 
f 80/93/75 79/92/74 91/105/86 92/106/87 
f 79/92/74 81/94/76 93/107/88 91/105/86 
f 81/94/76 82/95/77 94/108/89 93/107/88 
f 82/95/77 83/96/78 95/109/90 94/108/89 
f 83/98/78 84/97/79 96/110/91 95/111/90 
f 84/97/79 85/99/80 97/112/92 96/110/91 
f 85/99/80 86/100/81 98/113/93 97/112/92 
f 86/100/81 87/101/82 99/114/94 98/113/93 
f 87/101/82 88/102/83 100/115/95 99/114/94 
f 90/104/85 89/103/84 101/116/96 102/117/97 
f 89/103/84 80/93/75 92/106/87 101/116/96 
f 92/106/87 91/105/86 103/118/98 104/119/99 
f 91/105/86 93/107/88 105/120/100 103/118/98 
f 93/107/88 94/108/89 106/121/101 105/120/100 
f 94/108/89 95/109/90 107/122/102 106/121/101 
f 95/111/90 96/110/91 108/123/103 107/124/102 
f 96/110/91 97/112/92 109/125/104 108/123/103 
f 97/112/92 98/113/93 110/126/105 109/125/104 
f 98/113/93 99/114/94 111/127/106 110/126/105 
f 99/114/94 100/115/95 112/128/107 111/127/106 
f 102/117/97 101/116/96 113/129/108 114/130/109 
f 101/116/96 92/106/87 104/119/99 113/129/108 
f 104/119/99 103/118/98 115/131/110 116/132/111 
f 103/118/98 105/120/100 117/133/112 115/131/110 
f 105/120/100 106/121/101 118/134/113 117/133/112 
f 106/121/101 107/122/102 119/135/114 118/134/113 
f 107/124/102 108/123/103 120/136/115 119/137/114 
f 108/123/103 109/125/104 121/138/116 120/136/115 
f 109/125/104 110/126/105 122/139/117 121/138/116 
f 110/126/105 111/127/106 123/140/118 122/139/117 
f 111/127/106 112/128/107 124/141/119 123/140/118 
f 114/130/109 113/129/108 125/142/120 126/143/121 
f 113/129/108 104/119/99 116/132/111 125/142/120 
s 1
f 125/142/120 116/132/111 115/131/110 117/133/112 118/134/113 119/135/114 120/144/115 121/145/116 122/146/117 123/147/118 124/148/119 126/149/121 
# 101 polygons

