#File written by LIBUNFOLD3D. Compilation :Nov 19 2015,18:10:47
mtllib meja daun.mtl
#begin vertices
v 6283.377 -1551.929 -6089.247
v 6115.849 -1551.929 -5619.024
v 5731.437 -1551.929 -5119.861
v 5176.506 -1551.929 -4651.965
v 4972.896 -1551.929 -4579.376
v 4959.591 -1551.929 -4628.527
v 5022.454 -1551.929 -4801.407
v 4965.254 -1551.929 -4716.879
v 4867.641 -1551.929 -4538.993
v 4741.895 -1551.929 -4408.568
v 4517.99 -1551.929 -4271.77
v 3835.315 -1551.929 -4025.135
v 3210.821 -1551.929 -3941.806
v 2719.833 -1551.929 -4031.835
v 2421.57 -1551.929 -4284.362
v 2410.233 -1551.929 -4348.605
v 2594.476 -1551.929 -4556.94
v 2607.984 -1551.929 -4604.353
v 2506.991 -1551.929 -4554.524
v 2363.845 -1551.929 -4461.234
v 2324.085 -1551.929 -4465.881
v 2519.534 -1551.929 -5139.152
v 2903.946 -1551.929 -5638.315
v 3458.876 -1551.929 -6106.211
v 4117.393 -1551.929 -6486.405
v 4800.068 -1551.929 -6733.042
v 5424.562 -1551.929 -6816.371
v 5915.551 -1551.929 -6726.342
v 6213.814 -1551.929 -6473.815
v 5915.551 -1236.813 -6726.342
v 6213.814 -1236.813 -6473.815
v 5424.562 -1236.813 -6816.371
v 4800.068 -1236.813 -6733.042
v 4117.393 -1236.813 -6486.405
v 3458.876 -1236.813 -6106.211
v 2903.946 -1236.813 -5638.315
v 2519.534 -1236.813 -5139.152
v 2324.085 -1236.813 -4465.881
v 2506.991 -1236.813 -4554.524
v 2363.845 -1236.813 -4461.234
v 2719.833 -1236.813 -4031.835
v 2421.57 -1236.813 -4284.362
v 3210.821 -1236.813 -3941.806
v 3835.315 -1236.813 -4025.135
v 4517.99 -1236.813 -4271.77
v 4965.254 -1236.813 -4716.879
v 4867.641 -1236.813 -4538.993
v 5731.437 -1236.813 -5119.861
v 5176.506 -1236.813 -4651.965
v 6115.849 -1236.813 -5619.024
v 6283.377 -1236.813 -6089.247
v 2607.984 -1236.813 -4604.353
v 2594.476 -1236.813 -4556.94
v 2410.233 -1236.813 -4348.605
v 4741.895 -1236.813 -4408.568
v 5022.454 -1236.813 -4801.407
v 4959.591 -1236.813 -4628.527
v 4972.896 -1236.813 -4579.376
v 2805.767 -2575.539 -4241.256
v 2789.189 -2575.539 -4219.65
v 2762.188 -2575.539 -4216.096
v 2740.582 -2575.539 -4232.675
v 2737.027 -2575.539 -4259.675
v 2753.606 -2575.539 -4281.281
v 2780.607 -2575.539 -4284.836
v 2802.213 -2575.539 -4268.257
v 2782.61 -2347.154 -4292.311
v 2808.915 -2347.154 -4272.127
v 2749.737 -2347.154 -4287.983
v 2729.552 -2347.154 -4261.678
v 2733.88 -2347.154 -4228.805
v 2760.185 -2347.154 -4208.621
v 2793.058 -2347.154 -4212.948
v 2813.243 -2347.154 -4239.253
v 2784.983 -2121.727 -4301.167
v 2816.856 -2121.727 -4276.711
v 2745.152 -2121.727 -4295.924
v 2720.696 -2121.727 -4264.051
v 2725.94 -2121.727 -4224.221
v 2757.812 -2121.727 -4199.764
v 2797.643 -2121.727 -4205.008
v 2822.099 -2121.727 -4236.88
v 2790.319 -1292.423 -4321.081
v 2834.709 -1292.423 -4287.019
v 2734.844 -1292.423 -4313.778
v 2700.782 -1292.423 -4269.387
v 2708.085 -1292.423 -4213.912
v 2752.476 -1292.423 -4179.851
v 2807.951 -1292.423 -4187.154
v 2842.013 -1292.423 -4231.544
v 5637.537 -2575.539 -6543.44
v 5620.958 -2575.539 -6521.834
v 5593.958 -2575.539 -6518.279
v 5572.352 -2575.539 -6534.858
v 5568.797 -2575.539 -6561.858
v 5585.376 -2575.539 -6583.464
v 5612.377 -2575.539 -6587.019
v 5633.982 -2575.539 -6570.44
v 5614.38 -2347.154 -6594.494
v 5640.685 -2347.154 -6574.31
v 5581.506 -2347.154 -6590.167
v 5561.322 -2347.154 -6563.861
v 5565.65 -2347.154 -6530.988
v 5591.955 -2347.154 -6510.804
v 5624.828 -2347.154 -6515.132
v 5645.013 -2347.154 -6541.436
v 5616.753 -2121.727 -6603.351
v 5648.625 -2121.727 -6578.895
v 5576.922 -2121.727 -6598.107
v 5552.465 -2121.727 -6566.234
v 5557.709 -2121.727 -6526.404
v 5589.582 -2121.727 -6501.947
v 5629.412 -2121.727 -6507.191
v 5653.869 -2121.727 -6539.064
v 5622.089 -1292.423 -6623.265
v 5666.48 -1292.423 -6589.203
v 5566.614 -1292.423 -6615.961
v 5532.552 -1292.423 -6571.57
v 5539.855 -1292.423 -6516.096
v 5584.246 -1292.423 -6482.034
v 5639.721 -1292.423 -6489.337
v 5673.783 -1292.423 -6533.728
v 6060.619 -2575.539 -6120.446
v 6044.04 -2575.539 -6098.84
v 6017.04 -2575.539 -6095.285
v 5995.434 -2575.539 -6111.864
v 5991.879 -2575.539 -6138.864
v 6008.458 -2575.539 -6160.47
v 6035.458 -2575.539 -6164.025
v 6057.064 -2575.539 -6147.446
v 6037.461 -2347.154 -6171.5
v 6063.766 -2347.154 -6151.315
v 6004.588 -2347.154 -6167.172
v 5984.403 -2347.154 -6140.867
v 5988.731 -2347.154 -6107.995
v 6015.036 -2347.154 -6087.81
v 6047.91 -2347.154 -6092.138
v 6068.094 -2347.154 -6118.442
v 6039.834 -2121.727 -6180.357
v 6071.707 -2121.727 -6155.9
v 6000.004 -2121.727 -6175.113
v 5975.547 -2121.727 -6143.24
v 5980.791 -2121.727 -6103.41
v 6012.663 -2121.727 -6078.953
v 6052.494 -2121.727 -6084.197
v 6076.951 -2121.727 -6116.069
v 6045.17 -1292.423 -6200.27
v 6089.56 -1292.423 -6166.208
v 5989.695 -1292.423 -6192.967
v 5955.634 -1292.423 -6148.576
v 5962.937 -1292.423 -6093.102
v 6007.328 -1292.423 -6059.04
v 6062.802 -1292.423 -6066.343
v 6096.864 -1292.423 -6110.733
v 2845.115 -2575.539 -5066.789
v 2828.537 -2575.539 -5045.184
v 2801.536 -2575.539 -5041.629
v 2779.93 -2575.539 -5058.208
v 2776.376 -2575.539 -5085.208
v 2792.954 -2575.539 -5106.814
v 2819.955 -2575.539 -5110.369
v 2841.561 -2575.539 -5093.79
v 2821.958 -2347.154 -5117.844
v 2848.263 -2347.154 -5097.659
v 2789.085 -2347.154 -5113.516
v 2768.9 -2347.154 -5087.211
v 2773.228 -2347.154 -5054.338
v 2799.533 -2347.154 -5034.153
v 2832.406 -2347.154 -5038.481
v 2852.591 -2347.154 -5064.786
v 2824.331 -2121.727 -5126.701
v 2856.203 -2121.727 -5102.244
v 2784.5 -2121.727 -5121.457
v 2760.044 -2121.727 -5089.584
v 2765.287 -2121.727 -5049.753
v 2797.16 -2121.727 -5025.297
v 2836.991 -2121.727 -5030.541
v 2861.447 -2121.727 -5062.413
v 2829.667 -1292.423 -5146.614
v 2874.057 -1292.423 -5112.552
v 2774.192 -1292.423 -5139.31
v 2740.13 -1292.423 -5094.92
v 2747.433 -1292.423 -5039.445
v 2791.824 -1292.423 -5005.383
v 2847.299 -1292.423 -5012.686
v 2881.361 -1292.423 -5057.077
#end vertices

#begin 332 textures vertices 
vt 0.3330066 0.6069657 0
vt 0.3692005 0.5349041 0
vt 0.4407403 0.4625087 0
vt 0.5389975 0.3985112 0
vt 0.573082 0.3909158 0
vt 0.5742392 0.39906 0
vt 0.5471692 0.7955083 0
vt 0.5715773 0.4131124 0
vt 0.5907585 0.3865312 0
vt 0.6135077 0.3681174 0
vt 0.6521206 0.3506309 0
vt 0.7664655 0.3246427 0
vt 0.8682404 0.3236812 0
vt 0.9451697 0.3478624 0
vt 0.9879747 0.3942696 0
vt 0.9885168 0.4047943 0
vt 0.9548424 0.4345373 0
vt 0.7161819 0.7955083 0
vt 0.9689162 0.4358869 0
vt 0.9937178 0.4237723 0
vt 1 0.4253067 0
vt 0.9552986 0.5293671 0
vt 0.8837589 0.6017625 0
vt 0.7855017 0.66576 0
vt 0.6723786 0.7136404 0
vt 0.5580336 0.7396287 0
vt 0.4562587 0.7405902 0
vt 0.3793294 0.716409 0
vt 0.3365244 0.6700017 0
vt 0.4988127 0.8993264 0
vt 0.4356787 0.8993264 0
vt 0.08064031 0.7935023 0
vt 0.1824197 0.7935023 0
vt 0.2996808 0.7935023 0
vt 0.4225196 0.7935023 0
vt 0.5397806 0.7935023 0
vt 0.64156 0.7935023 0
vt 0.66392 0.8464144 0
vt 0.6979891 0.8464144 0
vt 0.6703868 0.8464144 0
vt 0.1265658 0.8464144 0
vt 0.06343185 0.8464144 0
vt 0.2072061 0.8464144 0
vt 0.3089855 0.8464144 0
vt 0.4262464 0.8464144 0
vt 0.5306812 0.8464144 0
vt 0.4979019 0.8464144 0
vt 0.1901248 0.8993264 0
vt 0.07286382 0.8993264 0
vt 0.2919043 0.8993264 0
vt 0.3725446 0.8993264 0
vt 0.04968242 0.1352181 0
vt 0.04585564 0.1282335 0
vt 0.009368048 0.1020177 0
vt 0.3788078 0.02791491 0
vt 0.4370786 0.07974327 0
vt 0.4209817 0.05476307 0
vt 0.4213163 0.04654392 0
vt 0.7282729 0.7007079 0
vt 0.7313837 0.7038189 0
vt 0.7313837 0.7082184 0
vt 0.7282727 0.7113292 0
vt 0.7238732 0.7113292 0
vt 0.7207623 0.7082182 0
vt 0.7207623 0.7038187 0
vt 0.7238734 0.7007079 0
vt 0.7929745 0.7120716 0
vt 0.7876032 0.712221 0
vt 0.7983359 0.7117723 0
vt 0.8036802 0.7113193 0
vt 0.7287512 0.7482423 0
vt 0.7715008 0.7117794 0
vt 0.7768593 0.712076 0
vt 0.7822292 0.7122225 0
vt 0.7946399 0.7484528 0
vt 0.7881606 0.7485938 0
vt 0.801117 0.7481712 0
vt 0.8075905 0.7477507 0
vt 0.729318 0.784685 0
vt 0.7687238 0.7481695 0
vt 0.7752012 0.7484517 0
vt 0.7816805 0.7485935 0
vt 0.7984818 0.8823898 0
vt 0.7894414 0.8825634 0
vt 0.8075161 0.8820433 0
vt 0.8165405 0.8815252 0
vt 0.7305927 0.9186923 0
vt 0.7623223 0.8820446 0
vt 0.7713577 0.8823907 0
vt 0.7803987 0.8825638 0
vt 0.9434355 0.7520459 0
vt 0.9434356 0.7476464 0
vt 0.9465465 0.7445356 0
vt 0.950946 0.7445356 0
vt 0.9540569 0.7476465 0
vt 0.9540569 0.752046 0
vt 0.9509459 0.7551569 0
vt 0.9465464 0.7551569 0
vt 0.9514243 0.79207 0
vt 0.946068 0.79207 0
vt 0.954056 0.5720009 0
vt 0.9594144 0.5722979 0
vt 0.9647842 0.5724449 0
vt 0.9701583 0.5724438 0
vt 0.9755296 0.5722947 0
vt 0.980891 0.5719959 0
vt 0.9519912 0.8285127 0
vt 0.9455012 0.8285127 0
vt 0.9512762 0.6083908 0
vt 0.9577536 0.6086736 0
vt 0.964233 0.6088158 0
vt 0.970713 0.6088166 0
vt 0.9771923 0.6086761 0
vt 0.9836694 0.6083949 0
vt 0.9532657 0.9625199 0
vt 0.9442266 0.9625199 0
vt 0.9448647 0.7422654 0
vt 0.9539001 0.7426122 0
vt 0.9629411 0.742786 0
vt 0.9719838 0.7427863 0
vt 0.9810243 0.7426133 0
vt 0.9900586 0.7422676 0
vt 0.743934 0.6962722 0
vt 0.7408231 0.6931613 0
vt 0.7408231 0.6887618 0
vt 0.743934 0.6856508 0
vt 0.7483335 0.6856508 0
vt 0.7514444 0.6887618 0
vt 0.7514444 0.6931612 0
vt 0.7483335 0.6962722 0
vt 0.832689 0.6756163 0
vt 0.8273498 0.6751651 0
vt 0.8380474 0.6759133 0
vt 0.8434173 0.6760602 0
vt 0.8487913 0.6760591 0
vt 0.8541626 0.67591 0
vt 0.8595241 0.6756112 0
vt 0.8648684 0.6751586 0
vt 0.8299092 0.7120062 0
vt 0.8234351 0.7115847 0
vt 0.8363865 0.7122889 0
vt 0.842866 0.7124311 0
vt 0.849346 0.712432 0
vt 0.8558253 0.7122914 0
vt 0.8623025 0.7120103 0
vt 0.868776 0.7115903 0
vt 0.8234977 0.8458808 0
vt 0.8144718 0.8453619 0
vt 0.8325332 0.8462275 0
vt 0.8415742 0.8464013 0
vt 0.8506168 0.8464017 0
vt 0.8596572 0.8462287 0
vt 0.8686916 0.8458829 0
vt 0.877716 0.8453655 0
vt 0.9941781 0.7519357 0
vt 0.9910672 0.7550466 0
vt 0.9866677 0.7550466 0
vt 0.9835568 0.7519357 0
vt 0.9835567 0.7475362 0
vt 0.9866677 0.7444253 0
vt 0.9910671 0.7444253 0
vt 0.9941781 0.7475362 0
vt 0.9045969 0.6333469 0
vt 0.899227 0.6332007 0
vt 0.9099709 0.6333452 0
vt 0.9153422 0.6331954 0
vt 0.9207036 0.6328959 0
vt 0.926048 0.6324426 0
vt 0.9915456 0.7919597 0
vt 0.8938685 0.6329044 0
vt 0.9040502 0.6697179 0
vt 0.8975709 0.6695766 0
vt 0.9105303 0.669718 0
vt 0.9170096 0.6695766 0
vt 0.9234867 0.6692946 0
vt 0.9299602 0.6688738 0
vt 0.9921125 0.8284024 0
vt 0.8910934 0.6692947 0
vt 0.9027756 0.8036883 0
vt 0.8937345 0.8035157 0
vt 0.9118183 0.8036875 0
vt 0.9208587 0.8035133 0
vt 0.9298929 0.8031664 0
vt 0.9389173 0.8026478 0
vt 0.993387 0.9624096 0
vt 0.8846991 0.8031701 0
vt 0.6467367 0.3509638 0
vt -1.17787e-015 0.1235783 0
vt 0.6846716 0.3004976 0
vt 0.5726205 0.3827386 0
vt 0.4712623 0.3919893 0
vt 0.3548874 0.3776 0
vt 0.2375326 0.3413066 0
vt 0.1333524 0.2874863 0
vt 0.05491251 0.2226308 0
vt 0.03198825 0.1309877 0
vt 0.006096651 0.1214216 0
vt 0.04678675 0.04102542 0
vt 0.008851874 0.09149169 0
vt 0.1209029 0.00925064 0
vt 0.2222611 -6.562882e-016 0
vt 0.3386359 0.01438911 0
vt 0.4250395 0.06847767 0
vt 0.4032891 0.04395421 0
vt 0.5601709 0.1045029 0
vt 0.4559907 0.05068257 0
vt 0.6386109 0.1693583 0
vt 0.6818495 0.2374266 0
vt 0.007964245 0.8464144 0
vt 0.05289318 0.8464144 0
vt 0.4686343 0.8464144 0
vt 2.089362e-015 0.8993264 0
vt 0.5471692 0.8464144 0
vt 0.02971736 0.8993264 0
vt 0.03794332 0.8993264 0
vt -1.417759e-015 0.8464144 0
vt 0.7161819 0.8464144 0
vt 0.03794332 0.8484204 0
vt 0.4356787 0.8484204 0
vt 0.3725446 0.8484204 0
vt 0.4979019 0.7955083 0
vt 0.2919043 0.8484204 0
vt 0.1901248 0.8484204 0
vt 0.07286382 0.8484204 0
vt 0.02971736 0.8484204 0
vt 0.5306812 0.7955083 0
vt 0.4686343 0.7955083 0
vt 0.4262464 0.7955083 0
vt 0.3089855 0.7955083 0
vt 0.2072061 0.7955083 0
vt 0.1265658 0.7955083 0
vt 0.06343185 0.7955083 0
vt 0.05289318 0.7955083 0
vt 0.6979891 0.7955083 0
vt 0.6703868 0.7955083 0
vt 0.66392 0.7955083 0
vt 0.64156 0.7425963 0
vt 0.5506646 0.7955083 0
vt 0.5397806 0.7425963 0
vt 0.4225196 0.7425963 0
vt 0.2996808 0.7425963 0
vt 0.1824197 0.7425963 0
vt 0.08064031 0.7425963 0
vt 0.4988127 0.8484204 0
vt 5.573245e-016 0.7425963 0
vt 0.5607288 0.4255286 0
vt -3.400665e-016 0.8484204 0
vt 0.007964245 0.7955083 0
vt 0.9517355 0.4418705 0
vt 2.595309e-015 0.7955083 0
vt 1.095847e-015 0.7935023 0
vt 0.5506646 0.8464144 0
vt 0.8614716 0.6384368 0
vt 0.8570875 0.6387852 0
vt 0.7488119 0.7331853 0
vt 0.8526968 0.6390184 0
vt 0.8483018 0.639135 0
vt 0.8439053 0.6391343 0
vt 0.8395102 0.6390167 0
vt 0.8351187 0.638783 0
vt 0.8307329 0.6384353 0
vt 0.7434555 0.7331853 0
vt 0.7493788 0.769628 0
vt 0.7428886 0.769628 0
vt 0.7506531 0.9036352 0
vt 0.7570448 0.9100267 0
vt 0.7570449 0.9190659 0
vt 0.7506533 0.9254574 0
vt 0.7416143 0.9254575 0
vt 0.7352226 0.919066 0
vt 0.7352225 0.9100269 0
vt 0.741614 0.9036352 0
vt 0.9828386 0.5348215 0
vt 0.9784544 0.5351699 0
vt 0.9740636 0.5354031 0
vt 0.9862355 0.5715432 0
vt 0.9696687 0.5355196 0
vt 0.9652723 0.535519 0
vt 0.9608771 0.5354013 0
vt 0.9564856 0.5351676 0
vt 0.9520999 0.53482 0
vt 0.9487168 0.5715498 0
vt 0.990143 0.6079749 0
vt 0.944802 0.6079693 0
vt 0.999083 0.7417501 0
vt 0.9358386 0.7417466 0
vt 0.9596573 0.9689116 0
vt 0.9596573 0.9779507 0
vt 0.9532657 0.9843423 0
vt 0.9442266 0.9843423 0
vt 0.937835 0.9779507 0
vt 0.937835 0.9689116 0
vt 0.7871109 0.6752969 0
vt 0.7827145 0.6752966 0
vt 0.7783192 0.6751793 0
vt 0.7739278 0.6749459 0
vt 0.769542 0.6745986 0
vt 0.7233948 0.7482423 0
vt 0.8002808 0.6745978 0
vt 0.7958967 0.6749465 0
vt 0.7915059 0.67518 0
vt 0.7661617 0.7113287 0
vt 0.722828 0.7846851 0
vt 0.7622497 0.7477485 0
vt 0.7151618 0.9341229 0
vt 0.7215534 0.9405146 0
vt 0.7151619 0.9250838 0
vt 0.7215535 0.9186923 0
vt 0.7532963 0.8815264 0
vt 0.7369842 0.925084 0
vt 0.7369841 0.9341231 0
vt 0.7305925 0.9405146 0
vt 0.900685 0.5963039 0
vt 0.8962935 0.5960708 0
vt 0.8919077 0.5957237 0
vt 0.9226464 0.5957213 0
vt 0.9182624 0.5960702 0
vt 0.9138717 0.596304 0
vt 0.9094767 0.5964211 0
vt 0.9861892 0.7919597 0
vt 0.9050803 0.596421 0
vt 0.8885294 0.632454 0
vt 0.9856224 0.8284024 0
vt 0.8846193 0.668874 0
vt 0.9933869 0.984232 0
vt 0.9997785 0.9778404 0
vt 0.9843478 0.9842319 0
vt 0.9779562 0.9778403 0
vt 0.9779562 0.9688012 0
vt 0.9843479 0.9624096 0
vt 0.875673 0.8026524 0
vt 0.9997786 0.9688013 0
#end 332 textures vertices 

#begin 91 normals 
vn 0.7311 -0.67 -0.1289
vn 0.7311 -0.67 0.1289
vn 0.6429 -0.67 0.3712
vn 0.3828 -0.6369 0.6691
vn -0.3905 -0.5903 0.7065
vn -0.7328 -0.665 0.1441
vn -0.1154 0.5382 0.8349
vn 0.7029 0.695 0.1514
vn 0.7015 -0.6689 0.2459
vn 0.5477 -0.6574 0.5175
vn 0.2731 -0.665 0.6951
vn -0 -0.67 0.7423
vn -0.2539 -0.67 0.6976
vn -0.4771 -0.6701 0.5686
vn -0.6435 -0.6698 0.3705
vn -0.7761 -0.6294 -0.0397
vn -0.7409 0.6551 -0.148
vn -0.4413 0.5617 0.6998
vn 0.3589 0.681 0.6383
vn 0.0672 -0.6065 0.7923
vn -0.6638 -0.6094 0.4336
vn -0.7385 -0.6651 -0.1111
vn -0.6429 -0.67 -0.3712
vn -0.4772 -0.67 -0.5687
vn -0.2539 -0.67 -0.6976
vn -0 -0.67 -0.7423
vn 0.2539 -0.67 -0.6976
vn 0.4771 -0.6701 -0.5686
vn 0.6429 -0.6701 -0.3711
vn 0.4771 0.6701 -0.5686
vn 0.6429 0.6701 -0.3711
vn 0.2539 0.67 -0.6976
vn -0 0.67 -0.7423
vn -0.2539 0.67 -0.6976
vn -0.4772 0.67 -0.5687
vn -0.6429 0.67 -0.3712
vn -0.7385 0.6651 -0.1111
vn -0.6638 0.6094 0.4336
vn 0.3589 -0.681 0.6383
vn 0.0672 0.6065 0.7923
vn -0.4771 0.6701 0.5686
vn -0.6435 0.6698 0.3705
vn -0.2539 0.67 0.6976
vn -0 0.67 0.7423
vn 0.2731 0.665 0.6951
vn 0.7029 -0.695 0.1514
vn 0.7015 0.6689 0.2459
vn 0.6429 0.67 0.3712
vn 0.3828 0.6369 0.6691
vn 0.7311 0.67 0.1289
vn 0.7311 0.67 -0.1289
vn -0.4413 -0.5617 0.6998
vn -0.7409 -0.6551 -0.148
vn -0.7761 0.6294 -0.0397
vn 0.5477 0.6574 0.5175
vn -0.1154 -0.5382 0.8349
vn -0.7328 0.665 0.1441
vn -0.3905 0.5903 0.7065
vn 0.7602 -0.6496 0.0063
vn 0.3995 -0.6013 0.692
vn -0.3746 -0.6496 0.6615
vn -0.6414 -0.6719 0.3703
vn -0.7602 -0.6496 -0.0063
vn -0.3995 -0.6013 -0.692
vn 0.3746 -0.6496 -0.6615
vn 0.6414 -0.6719 -0.3703
vn 0.4898 -0.0282 -0.8714
vn 0.8658 -0.021 -0.4999
vn -0.4995 -0.0428 -0.8652
vn -0.9995 -0.0282 -0.0115
vn -0.8658 -0.021 0.4999
vn -0.4898 -0.0282 0.8714
vn 0.4995 -0.0428 0.8652
vn 0.9995 -0.0282 0.0115
vn 0.4889 -0.0248 -0.872
vn 0.8659 -0.0184 -0.4999
vn -0.4997 -0.0374 -0.8654
vn -0.9996 -0.0248 -0.0126
vn -0.8659 -0.0184 0.4999
vn -0.4889 -0.0248 0.872
vn 0.4997 -0.0374 0.8654
vn 0.9996 -0.0248 0.0126
vn 0.3774 0.633 -0.6759
vn 0.6509 0.6597 -0.3758
vn -0.4087 0.5762 -0.7078
vn -0.774 0.633 -0.0112
vn -0.6509 0.6597 0.3758
vn -0.3774 0.633 0.6759
vn 0.4087 0.5762 0.7078
vn 0.774 0.633 0.0112
vn -0.4996 -0.0374 -0.8654
#end 91 normals 

#begin 135 faces
usemtl wire_057008136
g meja
s 1
f 1/1/1 2/2/2 3/3/3 4/4/4 5/5/5 6/6/6 7/246/7 8/8/8 9/9/9 10/10/10 11/11/11 12/12/12 13/13/13 14/14/14 15/15/15 16/16/16 17/17/17 18/249/18 19/19/19 20/20/20 21/21/21 22/22/22 23/23/23 24/24/24 25/25/25 26/26/26 27/27/27 28/28/28 29/29/29 
s 8
f 29/219/29 28/244/28 30/30/30 31/31/31 
f 28/245/28 27/243/27 32/32/32 30/251/30 
f 27/243/27 26/242/26 33/33/33 32/32/32 
f 26/242/26 25/241/25 34/34/34 33/33/33 
f 25/241/25 24/240/24 35/35/35 34/34/34 
f 24/240/24 23/239/23 36/36/36 35/35/35 
f 23/239/23 22/237/22 37/37/37 36/36/36 
f 22/238/22 21/236/21 38/38/38 37/252/37 
f 20/235/20 19/234/19 39/39/39 40/40/40 
f 15/232/15 14/231/14 41/41/41 42/42/42 
f 14/231/14 13/230/13 43/43/43 41/41/41 
f 13/230/13 12/229/12 44/44/44 43/43/43 
f 12/229/12 11/228/11 45/45/45 44/44/44 
f 9/221/9 8/226/8 46/46/46 47/47/47 
f 4/224/4 3/223/3 48/48/48 49/49/49 
f 3/223/3 2/222/2 50/50/50 48/48/48 
f 2/222/2 1/220/1 51/51/51 50/50/50 
f 1/220/1 29/219/29 31/31/31 51/51/51 
s 1
f 51/208/51 31/189/31 30/187/30 32/190/32 33/191/33 34/192/34 35/193/35 36/194/36 37/195/37 38/188/38 40/197/40 39/196/39 52/52/52 53/53/53 54/54/54 42/199/42 41/198/41 43/200/43 44/201/44 45/202/45 55/55/55 47/204/47 46/203/46 56/56/56 57/57/57 58/58/58 49/206/49 48/205/48 50/207/50 
s 8
f 17/248/17 16/233/16 54/210/54 53/209/53 
f 16/233/16 15/232/15 42/42/42 54/210/54 
f 53/209/53 52/216/52 18/250/18 17/248/17 
f 19/234/19 18/18/18 52/217/52 39/39/39 
f 40/40/40 38/38/38 21/236/21 20/235/20 
f 5/218/5 4/224/4 49/49/49 58/215/58 
f 6/225/6 5/218/5 58/215/58 57/214/57 
f 55/211/55 45/45/45 11/228/11 10/227/10 
f 7/247/7 6/225/6 57/214/57 56/212/56 
f 8/226/8 7/7/7 56/213/56 46/46/46 
f 47/47/47 55/211/55 10/227/10 9/221/9 
s 1
f 59/59/59 60/60/60 61/61/61 62/62/62 63/63/63 64/64/64 65/65/65 66/66/66 
s 8
f 66/293/66 65/301/65 67/67/67 68/68/68 
f 65/301/65 64/300/64 69/69/69 67/67/67 
f 64/300/64 63/299/63 70/70/70 69/69/69 
f 63/63/63 62/62/62 71/71/71 70/298/70 
f 62/297/62 61/296/61 72/72/72 71/302/71 
f 61/296/61 60/295/60 73/73/73 72/72/72 
f 60/295/60 59/294/59 74/74/74 73/73/73 
f 59/294/59 66/293/66 68/68/68 74/74/74 
f 68/68/68 67/67/67 75/75/75 76/76/76 
f 67/67/67 69/69/69 77/77/77 75/75/75 
f 69/69/69 70/70/70 78/78/78 77/77/77 
f 70/298/70 71/71/71 79/79/79 78/303/78 
f 71/302/71 72/72/72 80/80/80 79/304/79 
f 72/72/72 73/73/73 81/81/81 80/80/80 
f 73/73/73 74/74/74 82/82/82 81/81/81 
f 74/74/74 68/68/68 76/76/76 82/82/82 
f 76/76/76 75/75/75 83/83/83 84/84/84 
f 75/75/75 77/77/77 85/85/85 83/83/83 
f 77/77/77 78/78/78 86/86/86 85/85/85 
f 78/303/78 79/79/79 87/87/87 86/308/86 
f 79/304/79 80/80/80 88/88/88 87/309/87 
f 80/80/80 81/81/81 89/89/89 88/88/88 
f 81/81/81 82/82/82 90/90/90 89/89/89 
f 82/82/82 76/76/76 84/84/84 90/90/90 
s 1
f 90/312/90 84/306/84 83/305/83 85/307/85 86/308/86 87/87/87 88/310/88 89/311/89 
f 91/91/59 92/92/60 93/93/61 94/94/62 95/95/63 96/96/64 97/97/65 98/98/66 
s 8
f 98/98/66 97/97/65 99/99/67 100/100/68 
f 97/281/65 96/280/64 101/101/69 99/282/67 
f 96/280/64 95/279/63 102/102/70 101/101/69 
f 95/279/63 94/278/62 103/103/71 102/102/70 
f 94/278/62 93/277/61 104/104/72 103/103/71 
f 93/277/61 92/275/60 105/105/73 104/104/72 
f 92/275/60 91/274/59 106/106/74 105/105/73 
f 91/274/59 98/273/66 100/276/68 106/106/74 
f 100/100/68 99/99/67 107/107/75 108/108/76 
f 99/282/67 101/101/69 109/109/91 107/284/75 
f 101/101/69 102/102/70 110/110/78 109/109/91 
f 102/102/70 103/103/71 111/111/79 110/110/78 
f 103/103/71 104/104/72 112/112/80 111/111/79 
f 104/104/72 105/105/73 113/113/81 112/112/80 
f 105/105/73 106/106/74 114/114/82 113/113/81 
f 106/106/74 100/276/68 108/283/76 114/114/82 
f 108/108/76 107/107/75 115/115/83 116/116/84 
f 107/284/75 109/109/91 117/117/85 115/286/83 
f 109/109/91 110/110/78 118/118/86 117/117/85 
f 110/110/78 111/111/79 119/119/87 118/118/86 
f 111/111/79 112/112/80 120/120/88 119/119/87 
f 112/112/80 113/113/81 121/121/89 120/120/88 
f 113/113/81 114/114/82 122/122/90 121/121/89 
f 114/114/82 108/283/76 116/285/84 122/122/90 
s 1
f 122/292/90 116/116/84 115/115/83 117/287/85 118/288/86 119/289/87 120/290/88 121/291/89 
f 123/123/59 124/124/60 125/125/61 126/126/62 127/127/63 128/128/64 129/129/65 130/130/66 
s 8
f 130/261/66 129/260/65 131/131/67 132/132/68 
f 129/260/65 128/259/64 133/133/69 131/131/67 
f 128/259/64 127/258/63 134/134/70 133/133/69 
f 127/258/63 126/257/62 135/135/71 134/134/70 
f 126/257/62 125/256/61 136/136/72 135/135/71 
f 125/256/61 124/254/60 137/137/73 136/136/72 
f 124/254/60 123/253/59 138/138/74 137/137/73 
f 123/123/59 130/130/66 132/255/68 138/262/74 
f 132/132/68 131/131/67 139/139/75 140/140/76 
f 131/131/67 133/133/69 141/141/77 139/139/75 
f 133/133/69 134/134/70 142/142/78 141/141/77 
f 134/134/70 135/135/71 143/143/79 142/142/78 
f 135/135/71 136/136/72 144/144/80 143/143/79 
f 136/136/72 137/137/73 145/145/81 144/144/80 
f 137/137/73 138/138/74 146/146/82 145/145/81 
f 138/262/74 132/255/68 140/263/76 146/264/82 
f 140/140/76 139/139/75 147/147/83 148/148/84 
f 139/139/75 141/141/77 149/149/85 147/147/83 
f 141/141/77 142/142/78 150/150/86 149/149/85 
f 142/142/78 143/143/79 151/151/87 150/150/86 
f 143/143/79 144/144/80 152/152/88 151/151/87 
f 144/144/80 145/145/81 153/153/89 152/152/88 
f 145/145/81 146/146/82 154/154/90 153/153/89 
f 146/264/82 140/263/76 148/265/84 154/272/90 
s 1
f 154/272/90 148/265/84 147/266/83 149/267/85 150/268/86 151/269/87 152/270/88 153/271/89 
f 155/155/59 156/156/60 157/157/61 158/158/62 159/159/63 160/160/64 161/161/65 162/162/66 
s 8
f 162/313/66 161/321/65 163/163/67 164/164/68 
f 161/321/65 160/319/64 165/165/69 163/163/67 
f 160/319/64 159/318/63 166/166/70 165/165/69 
f 159/318/63 158/317/62 167/167/71 166/166/70 
f 158/317/62 157/316/61 168/168/72 167/167/71 
f 157/157/61 156/156/60 169/169/73 168/320/72 
f 156/315/60 155/314/59 170/170/74 169/322/73 
f 155/314/59 162/313/66 164/164/68 170/170/74 
f 164/164/68 163/163/67 171/171/75 172/172/76 
f 163/163/67 165/165/69 173/173/77 171/171/75 
f 165/165/69 166/166/70 174/174/78 173/173/77 
f 166/166/70 167/167/71 175/175/79 174/174/78 
f 167/167/71 168/168/72 176/176/80 175/175/79 
f 168/320/72 169/169/73 177/177/81 176/323/80 
f 169/322/73 170/170/74 178/178/82 177/324/81 
f 170/170/74 164/164/68 172/172/76 178/178/82 
f 172/172/76 171/171/75 179/179/83 180/180/84 
f 171/171/75 173/173/77 181/181/85 179/179/83 
f 173/173/77 174/174/78 182/182/86 181/181/85 
f 174/174/78 175/175/79 183/183/87 182/182/86 
f 175/175/79 176/176/80 184/184/88 183/183/87 
f 176/323/80 177/177/81 185/185/89 184/330/88 
f 177/324/81 178/178/82 186/186/90 185/331/89 
f 178/178/82 172/172/76 180/180/84 186/186/90 
s 1
f 186/332/90 180/326/84 179/325/83 181/327/85 182/328/86 183/329/87 184/330/88 185/185/89 
#end 135 faces

#begin properties
#U3DPROPERTIES_00 table {Mesh table {SymPlane table {Point vector3d 0 0 0  Normal vector3d 1 0 0  Threshold double 0.01 Enabled bool false } Maps table {Density table {PrimType string "Polygon" Size int 1 DefaultValue double 1 ScaleType string "Log" MinValue double 0.1 MaxValue double 4 Data doubles { r 135 1 } } Pin table {PrimType string "Vertex" Size int 1 DefaultValue double 0 ScaleType string "Normalized" MinValue double 0 MaxValue double 1 Data doubles { r 332 0 } } Protect table {PrimType string "Vertex" Size int 1 DefaultValue double 0 ScaleType string "Normalized" MinValue double -1 MaxValue double 1 Data doubles { r 332 0 } } } } }
#end properties

#begin 0 fatal error vertex (that Unfold3D cannot handle)
#end 0 fatal error vertex (that Unfold3D cannot handle)

#begin 0 error vertex
#end 0 error vertex
